<?xml version="1.0" encoding="utf-8"?><svg xmlns="http://www.w3.org/2000/svg" xmlns:xlink="http://www.w3.org/1999/xlink" width="1536" height="718" preserveAspectRatio="xMidYMid" viewBox="0 0 1536 718" style="z-index:1;margin-right:-1.6px;display:block;background-repeat-y:initial;background-repeat-x:initial;background-color:rgb(1, 44, 50);animation-play-state:paused" ><g transform="translate(768,359) scale(1,1) translate(-768,-359)" style="transform:matrix(1, 0, 0, 1, 0, 0);animation-play-state:paused" ><path d="M -100 425.13 C -71.56 425.48 -70.39 433.08 -44 433.08 S -14.36 432.79 12 432.79 S 40.05 417.68 68 417.68 S 96.43 425.12 124 425.12 S 153.48 433.35 180 433.35 S 209.03 434.08 236 434.08 S 264.75 432.37 292 432.37 S 321.61 427.45 348 427.45 S 376.24 429.93 404 429.93 S 432.16 422.72 460 422.72 S 489.48 430.63 516 430.63 S 544.5 430.62 572 430.62 S 600.26 428.54 628 428.54 S 657.29 423.86 684 423.86 S 712.14 430.12 740 430.12 S 769.37 431.94 796 431.94 S 824.17 430.07 852 430.07 S 880.82 428.35 908 428.35 S 937.58 418.1 964 418.1 S 993.69 421.64 1020 421.64 S 1049.18 424.96 1076 424.96 S 1104.69 420.8 1132 420.8 S 1160.32 428.81 1188 428.81 S 1217.44 424.2 1244 424.2 S 1272.74 431.91 1300 431.91 S 1329.06 434.19 1356 434.19 S 1384.81 418.52 1412 418.52 S 1440.4 424.66 1468 424.66 S 1497.06 428.79 1524 428.79 S 1552.94 420.74 1580 420.74 S 1609.4 416.8 1636 416.8 S 1664.92 433.5 1692 433.5 L 1636 718 L -100 718 Z" fill="#0f3135" stroke-width="0" transform="matrix(1,0,0,1,0,0)" style="transform:matrix(1, 0, 0, 1, 0, 0);animation-play-state:paused" ></path>
<path d="M -100 441.58 C -69.8 451.2 -70.45 439.74 -42.52 439.74 S -12.58 440.73 14.97 440.73 S 45.13 446.72 72.45 446.72 S 102.22 447.11 129.93 447.11 S 160.23 440.12 187.42 440.12 S 216.18 442.23 244.9 442.23 S 273.85 440.33 302.38 440.33 S 332.42 449.75 359.87 449.75 S 390 450.44 417.35 450.44 S 447.46 441.92 474.83 441.92 S 503.6 444.74 532.32 444.74 S 561.48 438.43 589.8 438.43 S 618.78 450.08 647.28 450.08 S 676.81 446.66 704.77 446.66 S 733.53 454.44 762.25 454.44 S 792.64 452.22 819.74 452.22 S 849.2 442.23 877.22 442.23 S 906.73 448.71 934.7 448.71 S 963.71 445.25 992.19 445.25 S 1022.55 446.11 1049.67 446.11 S 1079.47 440.42 1107.15 440.42 S 1136.79 446.42 1164.64 446.42 S 1193.84 450.92 1222.12 450.92 S 1252.02 451.56 1279.6 451.56 S 1309.23 440.49 1337.09 440.49 S 1366.95 440.3 1394.57 440.3 S 1423.61 438.16 1452.05 438.16 S 1481.85 443.11 1509.54 443.11 S 1538.77 455.34 1567.02 455.34 S 1596.65 445.44 1624.5 445.44 S 1655.04 445.63 1681.99 445.63 L 1636 718 L -100 718 Z" fill="#254346" stroke-width="0" transform="matrix(1,0,0,1,1.1340199708938599,0)" style="transform:matrix(1, 0, 0, 1, 1.13402, 0);animation-play-state:paused" ></path>
<path d="M -100 469.73 C -68.87 458.23 -69.76 464.4 -40.95 464.4 S -11.38 452.76 18.1 452.76 S 49.32 463.12 77.14 463.12 S 107.9 454.74 136.19 454.74 S 167.17 472.79 195.24 472.79 S 226.18 465.49 254.29 465.49 S 284.92 464 313.33 464 S 343.82 468.42 372.38 468.42 S 403.61 474.76 431.43 474.76 S 461.58 463 490.48 463 S 521.39 458.62 549.52 458.62 S 579.76 455.31 608.57 455.31 S 638.49 461.02 667.62 461.02 S 698.84 469.2 726.67 469.2 S 757.43 466.83 785.71 466.83 S 815.27 459.58 844.76 459.58 S 874.85 463.64 903.81 463.64 S 934.24 458.27 962.86 458.27 S 993.52 465.92 1021.9 465.92 S 1052.74 459.74 1080.95 459.74 S 1110.93 474.53 1140 474.53 S 1170.17 463.77 1199.05 463.77 S 1230.32 463.96 1258.1 463.96 S 1288.95 463.25 1317.14 463.25 S 1346.99 453.24 1376.19 453.24 S 1406.93 466.12 1435.24 466.12 S 1466.21 472.34 1494.29 472.34 S 1524.4 454.57 1553.33 454.57 S 1583.62 458.71 1612.38 458.71 S 1642.51 465.04 1671.43 465.04 L 1636 718 L -100 718 Z" fill="#3b5658" stroke-width="0" transform="matrix(1,0,0,1,3.5863146781921387,0)" style="transform:matrix(1, 0, 0, 1, 3.58631, 0);animation-play-state:paused" ></path>
<path d="M -100 475.13 C -68.01 470.43 -69.16 483.28 -39.3 483.28 S -8.57 484.12 21.4 484.12 S 53.48 497.93 82.1 497.93 S 113.86 472.72 142.8 472.72 S 174.44 492.51 203.5 492.51 S 234.69 480.08 264.2 480.08 S 294.68 491.4 324.9 491.4 S 356.94 480.23 385.59 480.23 S 416.65 488.89 446.29 488.89 S 478 474.75 506.99 474.75 S 537.64 498.87 567.69 498.87 S 599.08 478.05 628.39 478.05 S 658.83 481.11 689.09 481.11 S 719.81 472.6 749.79 472.6 S 781.25 493.45 810.49 493.45 S 842.29 487.21 871.19 487.21 S 903.01 492.51 931.89 492.51 S 963.49 470.69 992.59 470.69 S 1023.05 490.7 1053.29 490.7 S 1083.93 484.2 1113.99 484.2 S 1145.01 490.8 1174.69 490.8 S 1206.59 471.27 1235.38 471.27 S 1266.63 489.53 1296.08 489.53 S 1327.22 488.46 1356.78 488.46 S 1388.56 486.74 1417.48 486.74 S 1449.13 476.16 1478.18 476.16 S 1508.67 492.07 1538.88 492.07 S 1570.05 479.36 1599.58 479.36 S 1631.15 484.18 1660.28 484.18 L 1636 718 L -100 718 Z" fill="#51696b" stroke-width="0" transform="matrix(1,0,0,1,6.4136857986450195,0)" style="transform:matrix(1, 0, 0, 1, 6.41369, 0);animation-play-state:paused" ></path>
<path d="M -100 506.92 C -68.13 507.07 -68.33 519.21 -37.55 519.21 S -4.57 495.83 24.89 495.83 S 56.72 504.48 87.34 504.48 S 120.01 496.73 149.78 496.73 S 181.27 505.5 212.23 505.5 S 243.92 502.32 274.68 502.32 S 307.1 510.99 337.12 510.99 S 369.79 492.78 399.57 492.78 S 431.63 512.33 462.01 512.33 S 493.43 505.18 524.46 505.18 S 557.2 503.88 586.91 503.88 S 618.43 491.24 649.35 491.24 S 680.61 504.04 711.8 504.04 S 743.87 498.99 774.24 498.99 S 805.57 507.42 836.69 507.42 S 869.68 491.97 899.14 491.97 S 930.4 491.5 961.58 491.5 S 993.8 489.41 1024.03 489.41 S 1056.56 510.7 1086.47 510.7 S 1119.15 492.44 1148.92 492.44 S 1181.59 517.75 1211.37 517.75 S 1243.94 490.94 1273.81 490.94 S 1305.77 510.98 1336.26 510.98 S 1368.28 494.09 1398.71 494.09 S 1429.98 516.27 1461.15 516.27 S 1493.45 506.17 1523.6 506.17 S 1554.92 509.91 1586.04 509.91 S 1618.68 517.84 1648.49 517.84 L 1636 718 L -100 718 Z" fill="#677d7f" stroke-width="0" transform="matrix(1,0,0,1,8.86598014831543,0)" style="transform:matrix(1, 0, 0, 1, 8.86598, 0);animation-play-state:paused" ></path>
<path d="M -100 524.76 C -66.47 533.26 -66.97 526.21 -35.7 526.21 S -2.68 526.28 28.59 526.28 S 62.36 524.43 92.89 524.43 S 125.33 508.06 157.19 508.06 S 190.14 537.89 221.48 537.89 S 254.11 517.82 285.78 517.82 S 319.11 535.14 350.07 535.14 S 383.37 516.75 414.37 516.75 S 447.62 535.94 478.67 535.94 S 511.92 522.66 542.96 522.66 S 576.58 523.22 607.26 523.22 S 639.61 512.04 671.56 512.04 S 704.42 528.48 735.85 528.48 S 768.95 521.77 800.15 521.77 S 833.28 539.09 864.44 539.09 S 897.64 515.29 928.74 515.29 S 962.35 530.56 993.04 530.56 S 1026.37 510.16 1057.33 510.16 S 1089.64 539.33 1121.63 539.33 S 1154.01 517.58 1185.93 517.58 S 1219 537.19 1250.22 537.19 S 1282.57 520.96 1314.52 520.96 S 1348.26 527.68 1378.81 527.68 S 1411.41 513.91 1443.11 513.91 S 1476.23 527.65 1507.41 527.65 S 1540.72 506.2 1571.7 506.2 S 1604.88 532.49 1636 532.49 S 1669.46 519.81 1700.3 519.81 L 1636 718 L -100 718 Z" fill="#7e9193" stroke-width="0" transform="matrix(1,0,0,1,10,0)" style="transform:matrix(1, 0, 0, 1, 10, 0);animation-play-state:paused" ></path>
<path d="M -100 535.57 C -65.73 526.93 -65.76 562.7 -33.74 562.7 S -0.38 538.61 32.52 538.61 S 65.86 555.81 98.78 555.81 S 133.59 541.42 165.04 541.42 S 198.39 563.38 231.3 563.38 S 265.52 529.19 297.56 529.19 S 332.03 558.65 363.82 558.65 S 397.68 535.78 430.08 535.78 S 463.73 557.58 496.34 557.58 S 530.74 527.75 562.6 527.75 S 596.71 547.06 628.85 547.06 S 662.86 533.41 695.11 533.41 S 729.44 558.23 761.37 558.23 S 796.14 526.71 827.63 526.71 S 862.43 548.88 893.89 548.88 S 928.79 556.01 960.15 556.01 S 993.53 553.3 1026.41 553.3 S 1061 531.06 1092.67 531.06 S 1127.59 548.76 1158.93 548.76 S 1193.6 527.74 1225.19 527.74 S 1259.76 529.23 1291.45 529.23 S 1326.13 530.3 1357.71 530.3 S 1392.29 545.98 1423.97 545.98 S 1458.33 540.69 1490.23 540.69 S 1524.79 553.1 1556.49 553.1 S 1589.67 532.73 1622.75 532.73 S 1656.03 560.12 1689.01 560.12 L 1636 718 L -100 718 Z" fill="#95a6a7" stroke-width="0" transform="matrix(1,0,0,1,8.86598014831543,0)" style="transform:matrix(1, 0, 0, 1, 8.86598, 0);animation-play-state:paused" ></path>
<path d="M -100 552.65 C -64.78 543.52 -65.41 581.2 -31.65 581.2 S 4.1 576.22 36.69 576.22 S 72.29 557.39 105.04 557.39 S 140.64 554.51 173.39 554.51 S 208.16 548.35 241.73 548.35 S 277.37 551.33 310.08 551.33 S 344.3 570.09 378.43 570.09 S 413.77 550.38 446.77 550.38 S 482.11 547.1 515.12 547.1 S 549.64 559.32 583.46 559.32 S 618.63 583.79 651.81 583.79 S 687.09 544.33 720.16 544.33 S 754.83 568.23 788.5 568.23 S 823.21 551.37 856.85 551.37 S 891.22 567.26 925.2 567.26 S 960.03 585.08 993.54 585.08 S 1028.2 577.85 1061.89 577.85 S 1097.16 559.54 1130.24 559.54 S 1165.45 549.17 1198.58 549.17 S 1234.35 548.81 1266.93 548.81 S 1301.36 575.53 1335.28 575.53 S 1369.63 555.32 1403.62 555.32 S 1437.81 568.76 1471.97 568.76 S 1507.88 558.46 1540.31 558.46 S 1576.15 568.35 1608.66 568.35 S 1643.18 552.49 1677.01 552.49 L 1636 718 L -100 718 Z" fill="#adbcbc" stroke-width="0" transform="matrix(1,0,0,1,6.4136857986450195,0)" style="transform:matrix(1, 0, 0, 1, 6.41369, 0);animation-play-state:paused" ></path>
<path d="M -100 605.2 C -64.4 601.74 -64.01 604.82 -29.43 604.82 S 7.38 569.17 41.14 569.17 S 77.02 604.02 111.71 604.02 S 148.22 600.84 182.28 600.84 S 219.15 595.79 252.85 595.79 S 288.81 568.56 323.41 568.56 S 359.9 592.21 393.98 592.21 S 430.85 577.71 464.55 577.71 S 500.01 600.13 535.12 600.13 S 572.03 566.65 605.69 566.65 S 641.99 603.18 676.26 603.18 S 713.24 575.63 746.83 575.63 S 783.09 590.9 817.4 590.9 S 853.97 570.68 887.97 570.68 S 924.96 592.84 958.54 592.84 S 994.52 562.08 1029.11 562.08 S 1065.97 596 1099.67 596 S 1135.65 603.25 1170.24 603.25 S 1205.84 573.72 1240.81 573.72 S 1276.98 568.78 1311.38 568.78 S 1347.78 595.42 1381.95 595.42 S 1418.97 562.52 1452.52 562.52 S 1488.91 566.89 1523.09 566.89 S 1559.2 572.2 1593.66 572.2 S 1629.75 597.33 1664.23 597.33 L 1636 718 L -100 718 Z" fill="#c6d2d2" stroke-width="0" transform="matrix(1,0,0,1,3.5863142013549805,0)" style="transform:matrix(1, 0, 0, 1, 3.58631, 0);animation-play-state:paused" ></path>
<path d="M -100 579.76 C -63.37 582.63 -62.37 616.91 -27.06 616.91 S 9.45 591.42 45.88 591.42 S 83.11 611.57 118.82 611.57 S 156.1 593.29 191.76 593.29 S 229.97 622.35 264.71 622.35 S 301.43 622.45 337.65 622.45 S 374.7 627.2 410.59 627.2 S 447.2 584.23 483.53 584.23 S 521.48 617.98 556.47 617.98 S 593.04 594.29 629.41 594.29 S 666.44 589.73 702.35 589.73 S 739.68 584.38 775.29 584.38 S 813.01 622.45 848.24 622.45 S 886.37 595.26 921.18 595.26 S 959.35 616.83 994.12 616.83 S 1030.81 611 1067.06 611 S 1105.02 618.74 1140 618.74 S 1177.26 578.55 1212.94 578.55 S 1250.38 610.52 1285.88 610.52 S 1322.56 584.03 1358.82 584.03 S 1396.91 613.68 1431.76 613.68 S 1468.4 581.73 1504.71 581.73 S 1541.53 613.24 1577.65 613.24 S 1614.3 589.34 1650.59 589.34 L 1636 718 L -100 718 Z" fill="#dfe8e8" stroke-width="0" transform="matrix(1,0,0,1,1.1340198516845703,0)" style="transform:matrix(1, 0, 0, 1, 1.13402, 0);animation-play-state:paused" ></path></g></svg>